HIERARCHY
ROOT joint_Root
{
	OFFSET 0.0 0.0 0.0
	CHANNELS 6 Xposition Yposition Zposition Zrotation Xrotation Yrotation 
	JOINT Hips
	{
		OFFSET -17.1583 93.1646 452.98
		CHANNELS 6 Xposition Yposition Zposition Zrotation Xrotation Yrotation 
		JOINT Spine
		{
			OFFSET 15.7357 0.0 0.0
			CHANNELS 6 Xposition Yposition Zposition Zrotation Xrotation Yrotation 
			JOINT Chest
			{
				OFFSET 8.98455 -0.406207 0.0
				CHANNELS 6 Xposition Yposition Zposition Zrotation Xrotation Yrotation 
				JOINT Neck
				{
					OFFSET 16.3773 0.0 0.0
					CHANNELS 6 Xposition Yposition Zposition Zrotation Xrotation Yrotation 
					JOINT Head
					{
						OFFSET 6.45672 0.0 0.0
						CHANNELS 6 Xposition Yposition Zposition Zrotation Xrotation Yrotation 
						End Site
						{
							OFFSET 0.0 0.0 0.0
						}
					}
				}
				JOINT Shoulder_L
				{
					OFFSET 12.9942 -0.242716 4.98039
					CHANNELS 6 Xposition Yposition Zposition Zrotation Xrotation Yrotation 
					JOINT UpperArm_L
					{
						OFFSET 5.34809 0.0 0.0
						CHANNELS 6 Xposition Yposition Zposition Zrotation Xrotation Yrotation 
						JOINT LowerArm_L
						{
							OFFSET 24.3286 1.87007e-05 0.0
							CHANNELS 6 Xposition Yposition Zposition Zrotation Xrotation Yrotation 
							JOINT Hand_L
							{
								OFFSET 22.2916 0.0 0.0
								CHANNELS 6 Xposition Yposition Zposition Zrotation Xrotation Yrotation 
								End Site
								{
									OFFSET 0.0 0.0 0.0
								}
							}
						}
					}
				}
				JOINT Shoulder_R
				{
					OFFSET 12.9945 -0.242716 -4.98039
					CHANNELS 6 Xposition Yposition Zposition Zrotation Xrotation Yrotation 
					JOINT UpperArm_R
					{
						OFFSET -5.34813 0.0 0.0
						CHANNELS 6 Xposition Yposition Zposition Zrotation Xrotation Yrotation 
						JOINT LowerArm_R
						{
							OFFSET -24.3289 0.000322201 0.0
							CHANNELS 6 Xposition Yposition Zposition Zrotation Xrotation Yrotation 
							JOINT Hand_R
							{
								OFFSET -22.2915 -0.000108084 0.0
								CHANNELS 6 Xposition Yposition Zposition Zrotation Xrotation Yrotation 
								End Site
								{
									OFFSET 0.0 0.0 0.0
								}
							}
						}
					}
				}
			}
		}
		JOINT UpperLeg_L
		{
			OFFSET -2.19248 -6.46944 0.0
			CHANNELS 6 Xposition Yposition Zposition Zrotation Xrotation Yrotation 
			JOINT LowerLeg_L
			{
				OFFSET 39.0811 0.0 -1.23785e-05
				CHANNELS 6 Xposition Yposition Zposition Zrotation Xrotation Yrotation 
				JOINT Foot_L
				{
					OFFSET 40.9854 0.0 -1.26872e-05
					CHANNELS 6 Xposition Yposition Zposition Zrotation Xrotation Yrotation 
					JOINT Toes_L
					{
						OFFSET 11.7543 0.0 0.0
						CHANNELS 6 Xposition Yposition Zposition Zrotation Xrotation Yrotation 
						End Site
						{
							OFFSET 0.0 0.0 0.0
						}
					}
				}
			}
		}
		JOINT UpperLeg_R
		{
			OFFSET -2.19251 6.46944 0.0
			CHANNELS 6 Xposition Yposition Zposition Zrotation Xrotation Yrotation 
			JOINT LowerLeg_R
			{
				OFFSET -39.0811 -0.00228153 -0.0401928
				CHANNELS 6 Xposition Yposition Zposition Zrotation Xrotation Yrotation 
				JOINT Foot_R
				{
					OFFSET -40.9854 0.0 0.0
					CHANNELS 6 Xposition Yposition Zposition Zrotation Xrotation Yrotation 
					JOINT Toes_R
					{
						OFFSET -11.7543 0.0 0.0
						CHANNELS 6 Xposition Yposition Zposition Zrotation Xrotation Yrotation 
						End Site
						{
							OFFSET 0.0 0.0 0.0
						}
					}
				}
			}
		}
	}
}
MOTION
Frames:	9
Frame Time:	0.0333333
0.000000 0.000000 0.000000 0.000000 0.000000 -0.000000 -198.558000 88.695600 239.991000 -72.321700 84.447800 157.245000 15.735700 0.000005 -0.000001 28.477800 85.232600 -26.136800 8.984550 -0.406207 -0.000000 -3.054920 -8.598290 4.459960 16.377300 -0.000001 -0.000001 2.861200 3.606560 -2.441100 6.456720 -0.000001 -0.000000 1.751480 7.249960 -2.025630 12.994200 -0.242716 4.980390 -92.491400 7.716860 -72.045700 5.348090 -0.000007 -0.000001 -75.136700 -3.174550 -9.726460 24.328600 0.000019 0.000005 31.997700 22.297300 -58.730100 22.291600 -0.000001 0.000005 57.251500 4.144440 22.137600 12.994500 -0.242716 -4.980390 89.097300 2.430320 -69.617000 -5.348130 -0.000001 -0.000004 -62.966700 -7.820730 13.694700 -24.328900 0.000322 -0.000009 0.687028 9.830760 -4.023670 -22.291500 -0.000108 -0.000004 40.410800 5.313970 -0.324139 -2.192480 -6.469440 -0.000000 -173.042000 -7.421700 11.360000 39.081100 -0.000007 -0.000012 -0.007862 0.026771 16.365800 40.985400 -0.000006 -0.000013 -1.837680 26.346000 -67.340700 11.754300 -0.000000 0.000003 0.287353 0.117821 -23.714700 -2.192510 6.469440 -0.000001 -175.111000 0.328658 145.450000 -39.081100 -0.002282 -0.040193 0.030008 -0.074703 19.657900 -40.985400 0.000008 0.000006 2.241240 -10.675300 -58.541800 -11.754300 -0.000006 -0.000006 -0.000800 0.180196 -9.263910
0.000000 0.000000 0.000000 0.000000 0.000000 -0.000000 -193.570000 88.467100 240.646000 -65.870200 83.354800 149.280000 15.735700 0.000005 -0.000001 18.757500 85.695400 -15.967200 8.984550 -0.406207 -0.000000 -4.812820 -8.449900 5.237160 16.377300 -0.000001 -0.000001 3.150980 3.277900 -2.550910 6.456720 -0.000001 -0.000000 2.333740 6.701720 -2.215640 12.994200 -0.242716 4.980390 -92.623600 8.121580 -72.029300 5.348090 -0.000007 -0.000001 -75.818300 -0.796114 -6.371680 24.328600 0.000019 0.000005 28.535900 25.339800 -51.794400 22.291600 -0.000001 0.000005 56.888500 4.190280 21.456700 12.994500 -0.242716 -4.980390 88.887900 2.948770 -69.326600 -5.348130 -0.000001 -0.000004 -63.641900 -7.204740 12.733800 -24.328900 0.000322 -0.000009 0.735666 9.240900 -4.578120 -22.291500 -0.000108 -0.000004 39.892200 5.321950 -0.552334 -2.192480 -6.469440 -0.000000 -171.399000 -6.296480 9.890460 39.081100 -0.000007 -0.000012 0.007891 -0.021667 20.011200 40.985400 -0.000006 -0.000013 -2.310160 25.663900 -62.169300 11.754300 -0.000000 0.000003 -0.075749 -0.379893 -32.331200 -2.192510 6.469440 -0.000001 -173.270000 -0.193447 142.891000 -39.081100 -0.002282 -0.040193 0.115218 -0.228361 26.107200 -40.985400 0.000008 0.000006 5.234970 -11.207300 -57.205700 -11.754300 -0.000006 -0.000006 -0.002380 0.201043 -8.416340
0.000000 0.000000 0.000000 0.000000 0.000000 -0.000000 -188.336000 88.449600 241.153000 -61.170100 82.483400 144.663000 15.735700 0.000005 -0.000001 16.481200 86.006900 -13.411700 8.984550 -0.406207 -0.000000 -5.305980 -7.998680 5.781380 16.377300 -0.000001 -0.000001 2.992810 2.890630 -2.421560 6.456720 -0.000001 -0.000000 2.786340 6.102480 -2.347310 12.994200 -0.242716 4.980390 -92.636100 8.170410 -72.049500 5.348090 -0.000007 -0.000001 -76.983400 0.247305 -3.982480 24.328600 0.000019 0.000005 24.765300 30.526300 -42.252200 22.291600 -0.000001 0.000005 55.841600 4.265010 20.325700 12.994500 -0.242716 -4.980390 88.668500 3.491880 -69.113100 -5.348130 -0.000001 -0.000004 -65.101800 -5.803000 10.587200 -24.328900 0.000322 -0.000009 0.684423 8.274970 -4.751920 -22.291500 -0.000108 -0.000004 39.978300 5.324840 -0.635634 -2.192480 -6.469440 -0.000000 -170.669000 -3.654450 7.922390 39.081100 -0.000007 -0.000012 0.035705 -0.071625 26.496100 40.985400 -0.000006 -0.000013 -3.143310 22.962000 -54.141000 11.754300 -0.000000 0.000003 -0.145125 -0.545033 -39.598100 -2.192510 6.469440 -0.000001 -171.755000 0.038371 143.359000 -39.081100 -0.002282 -0.040193 0.183921 -0.297621 31.253200 -40.985400 0.000008 0.000006 4.906380 -11.110800 -58.864800 -11.754300 -0.000006 -0.000006 -0.006291 0.241120 -6.783900
0.000000 0.000000 0.000000 0.000000 0.000000 -0.000000 -183.126000 88.469700 241.559000 -59.448300 81.685100 144.903000 15.735700 0.000005 -0.000001 24.570100 86.078100 -21.378000 8.984550 -0.406207 -0.000000 -4.306860 -7.463850 6.114030 16.377300 -0.000001 -0.000001 2.931160 2.365930 -2.310790 6.456720 -0.000001 -0.000000 2.726530 5.315220 -2.511590 12.994200 -0.242716 4.980390 -92.586700 8.017480 -72.052700 5.348090 -0.000007 -0.000001 -77.641300 1.210850 -2.673290 24.328600 0.000019 0.000005 17.658700 34.573000 -29.289100 22.291600 -0.000001 0.000005 54.144400 4.408080 18.090200 12.994500 -0.242716 -4.980390 88.672600 3.489160 -69.155800 -5.348130 -0.000001 -0.000004 -67.501200 -3.994930 7.419620 -24.328900 0.000322 -0.000009 0.590094 6.586860 -5.141020 -22.291500 -0.000108 -0.000004 39.738700 5.334600 -0.920099 -2.192480 -6.469440 -0.000000 -169.991000 -1.411940 5.201140 39.081100 -0.000007 -0.000012 0.077409 -0.105455 36.280100 40.985400 -0.000006 -0.000013 -5.763520 20.473100 -43.836500 11.754300 -0.000000 0.000003 -0.091685 -0.423453 -34.211700 -2.192510 6.469440 -0.000001 -170.344000 1.458710 146.678000 -39.081100 -0.002282 -0.040193 0.288389 -0.397511 35.648900 -40.985400 0.000008 0.000006 4.551310 -10.584700 -64.044300 -11.754300 -0.000006 -0.000006 -0.007640 0.252738 -6.309740
0.000000 0.000000 0.000000 0.000000 0.000000 -0.000000 -178.359000 88.474000 241.987000 -56.586500 80.678000 144.577000 15.735700 0.000005 -0.000001 37.253700 86.084000 -33.855200 8.984550 -0.406207 -0.000000 -2.829520 -6.545500 6.641570 16.377300 -0.000001 -0.000001 2.926190 1.700530 -2.093190 6.456720 -0.000001 -0.000000 2.895900 4.096960 -2.570300 12.994200 -0.242716 4.980390 -92.563200 7.867240 -71.889500 5.348090 -0.000007 -0.000001 -77.574100 1.165430 -1.655080 24.328600 0.000019 0.000005 10.025000 36.373600 -16.596100 22.291600 -0.000001 0.000005 52.230500 4.499950 16.600400 12.994500 -0.242716 -4.980390 88.738500 3.351940 -69.362100 -5.348130 -0.000001 -0.000004 -69.675600 -0.760181 4.055120 -24.328900 0.000322 -0.000009 0.491730 4.203530 -6.699600 -22.291500 -0.000108 -0.000004 39.449200 5.349380 -1.358790 -2.192480 -6.469440 -0.000000 -168.853000 0.930060 0.168486 39.081100 -0.000007 -0.000012 0.171474 -0.154054 48.062700 40.985400 -0.000006 -0.000013 -11.914700 16.277000 -31.616900 11.754300 -0.000000 0.000003 0.001260 0.024922 -15.565800 -2.192510 6.469440 -0.000001 -168.767000 3.395930 151.436000 -39.081100 -0.002282 -0.040193 0.383613 -0.487822 37.942400 -40.985400 0.000008 0.000006 4.521350 -9.791850 -68.502600 -11.754300 -0.000006 -0.000006 -0.007646 0.252785 -6.307830
0.000000 0.000000 0.000000 0.000000 0.000000 -0.000000 -174.232000 88.736800 242.323000 -54.174500 79.856500 143.597000 15.735700 0.000005 -0.000001 47.459500 86.247200 -43.917400 8.984550 -0.406207 -0.000000 -2.062970 -5.376730 6.990720 16.377300 -0.000001 -0.000001 2.989600 1.046470 -1.555460 6.456720 -0.000001 -0.000000 3.235280 2.742960 -2.432900 12.994200 -0.242716 4.980390 -92.518400 7.617290 -71.643900 5.348090 -0.000007 -0.000001 -76.430900 -2.957310 0.935067 24.328600 0.000019 0.000005 6.360180 35.531600 -10.856800 22.291600 -0.000001 0.000005 50.410500 4.467540 17.138200 12.994500 -0.242716 -4.980390 88.702200 3.479570 -69.530800 -5.348130 -0.000001 -0.000004 -70.601300 3.676790 0.422584 -24.328900 0.000322 -0.000009 0.377625 2.333980 -9.236540 -22.291500 -0.000108 -0.000004 39.428200 5.372270 -2.056880 -2.192480 -6.469440 -0.000000 -168.038000 2.141200 -6.388820 39.081100 -0.000007 -0.000012 0.255550 -0.155056 58.751900 40.985400 -0.000006 -0.000013 -13.273100 12.363200 -29.070500 11.754300 -0.000000 0.000003 0.001849 0.041339 -14.899900 -2.192510 6.469440 -0.000001 -167.554000 4.942420 156.012000 -39.081100 -0.002282 -0.040193 0.422698 -0.543632 37.651200 -40.985400 0.000008 0.000006 4.664490 -9.104080 -71.505800 -11.754300 -0.000006 -0.000006 -0.007151 0.248622 -6.477780
0.000000 0.000000 0.000000 0.000000 0.000000 -0.000000 -170.360000 89.328700 242.402000 -54.175900 80.288600 144.718000 15.735700 0.000005 -0.000001 59.634700 86.407300 -56.390200 8.984550 -0.406207 -0.000000 -1.448660 -3.892140 6.440000 16.377300 -0.000001 -0.000001 3.208890 0.553646 -0.776241 6.456720 -0.000001 -0.000000 3.426860 1.474710 -2.082220 12.994200 -0.242716 4.980390 -92.541900 7.438700 -71.072900 5.348090 -0.000007 -0.000001 -73.256900 -8.575820 4.707200 24.328600 0.000019 0.000005 6.610880 34.254200 -11.635600 22.291600 -0.000001 0.000005 49.306200 4.409090 18.075800 12.994500 -0.242716 -4.980390 88.581600 3.821110 -69.617400 -5.348130 -0.000001 -0.000004 -70.414600 7.814590 -3.521270 -24.328900 0.000322 -0.000009 0.254784 1.149190 -12.570600 -22.291500 -0.000108 -0.000004 39.710600 5.390280 -2.623760 -2.192480 -6.469440 -0.000000 -168.816000 2.146690 -12.120100 39.081100 -0.000007 -0.000012 0.212737 -0.093087 66.366300 40.985400 -0.000006 -0.000013 -10.042000 13.391500 -35.521500 11.754300 -0.000000 0.000003 0.001997 0.046584 -14.687200 -2.192510 6.469440 -0.000001 -167.803000 5.775080 161.157000 -39.081100 -0.002282 -0.040193 0.395558 -0.548574 35.568300 -40.985400 0.000008 0.000006 4.395500 -8.210510 -73.368300 -11.754300 -0.000006 -0.000006 -0.006509 0.243057 -6.704870
0.000000 0.000000 0.000000 0.000000 0.000000 -0.000000 -166.717000 90.046300 242.245000 -56.878400 81.879100 148.223000 15.735700 0.000005 -0.000001 72.029500 86.451400 -69.469500 8.984550 -0.406207 -0.000000 -0.956621 -2.383990 5.098620 16.377300 -0.000001 -0.000001 3.623070 0.357351 -0.089600 6.456720 -0.000001 -0.000000 3.516360 0.599596 -1.521650 12.994200 -0.242716 4.980390 -92.556200 7.174580 -70.330300 5.348090 -0.000007 -0.000001 -68.767100 -11.210500 8.582910 24.328600 0.000019 0.000005 7.771590 32.614600 -14.211000 22.291600 -0.000001 0.000005 48.275000 4.421830 17.879000 12.994500 -0.242716 -4.980390 88.592800 3.826480 -69.791700 -5.348130 -0.000001 -0.000004 -70.318400 10.031800 -7.612700 -24.328900 0.000322 -0.000009 0.348027 1.194230 -16.286400 -22.291500 -0.000108 -0.000004 39.576000 5.400900 -2.966540 -2.192480 -6.469440 -0.000000 -170.978000 1.555900 -17.203500 39.081100 -0.000007 -0.000012 0.171867 -0.062670 69.964400 40.985400 -0.000006 -0.000013 -8.062860 12.332000 -39.837100 11.754300 -0.000000 0.000003 0.002246 0.057699 -14.236500 -2.192510 6.469440 -0.000001 -169.485000 6.426760 166.304000 -39.081100 -0.002282 -0.040193 0.299311 -0.460533 32.732100 -40.985400 0.000008 0.000006 3.362740 -6.314540 -74.370900 -11.754300 -0.000006 -0.000006 -0.005974 0.238271 -6.900090
0.000000 0.000000 0.000000 0.000000 0.000000 -0.000000 -163.304000 90.799600 241.926000 -61.698800 84.375200 153.201000 15.735700 0.000005 -0.000001 84.190100 86.524200 -82.496600 8.984550 -0.406207 -0.000000 -0.835600 -0.830612 3.379470 16.377300 -0.000001 -0.000001 3.970450 0.522665 0.344413 6.456720 -0.000001 -0.000000 3.824600 0.127250 -1.037090 12.994200 -0.242716 4.980390 -92.426800 6.537590 -69.582700 5.348090 -0.000007 -0.000001 -64.184000 -12.838600 11.623400 24.328600 0.000019 0.000005 8.075220 30.742000 -15.512900 22.291600 -0.000001 0.000005 47.541600 4.423880 17.840800 12.994500 -0.242716 -4.980390 88.813800 3.312570 -70.286700 -5.348130 -0.000001 -0.000004 -70.772300 11.263300 -11.149900 -24.328900 0.000322 -0.000009 0.411524 1.085000 -20.841700 -22.291500 -0.000108 -0.000004 39.383100 5.409150 -3.237300 -2.192480 -6.469440 -0.000000 -173.898000 0.612790 -21.677400 39.081100 -0.000007 -0.000012 0.134842 -0.049759 69.742700 40.985400 -0.000006 -0.000013 -6.858430 10.229800 -44.219100 11.754300 -0.000000 0.000003 0.002266 0.058794 -14.192000 -2.192510 6.469440 -0.000001 -171.868000 6.659000 171.045000 -39.081100 -0.002282 -0.040193 0.205665 -0.364197 29.058400 -40.985400 0.000008 0.000006 2.416340 -4.147580 -74.656400 -11.754300 -0.000006 -0.000006 -0.006299 0.241192 -6.780940
